# xmcd CD database file
#
# Track frame offsets:
#	150
#	19303
#	36278
#	58870
#	78919
#	93966
#	118388
#	129630
#	145634
#	166005
#	183684
#	200639
#	223908
#
# Disc length: 3163 seconds
#
# Revision: 0
# Processed by: cddbd v1.5.1PL0 Copyright (c) Steve Scherf et al.
# Submitted via: CDex 1.51
#
DISCID=c10c590d
DTITLE=Doug Walker - Steelin' The Party
DYEAR=1900
DGENRE=Salsa
TTITLE0=Jamaica Farewell
TTITLE1=Matilda Matilda
TTITLE2=Steeling the Party
TTITLE3=Margaritaville
TTITLE4=Hot, Hot, Hot,
TTITLE5=Yellow Bird
TTITLE6=Volcano
TTITLE7=The Girl From Ipanema
TTITLE8=One Love
TTITLE9=Red Red Wine
TTITLE10=The Iron Man
TTITLE11=I Music
TTITLE12=Island Party
EXTD=
EXTT0=
EXTT1=
EXTT2=
EXTT3=
EXTT4=
EXTT5=
EXTT6=
EXTT7=
EXTT8=
EXTT9=
EXTT10=
EXTT11=
EXTT12=
PLAYORDER=
